<svg width="24" height="24" fill="none" xmlns="http://www.w3.org/2000/svg"><path d="M6 18.934H5a2 2 0 01-2-2v-2.453c0-1.153.935-2.088 2.088-2.088H6m12 6.541h1a2 2 0 002-2v-2.5a2 2 0 00-2-2h-1" stroke="#AC7500" stroke-width="2" stroke-linecap="round" stroke-linejoin="round"/><path clip-rule="evenodd" d="M14 17.894h-4a1 1 0 01-1-1v-2a1 1 0 011-1h4a1 1 0 011 1v2a1 1 0 01-1 1z" stroke="#AC7500" stroke-width="2" stroke-linecap="round" stroke-linejoin="round"/><path d="M15 6V5a2 2 0 00-2-2h-2a2 2 0 00-2 2v1m4 4h-2" stroke="#AC7500" stroke-width="2" stroke-linecap="round" stroke-linejoin="round"/><path clip-rule="evenodd" d="M14 6h-4a4 4 0 00-4 4v9a2 2 0 002 2h8a2 2 0 002-2v-9a4 4 0 00-4-4z" stroke="#AC7500" stroke-width="2" stroke-linecap="round" stroke-linejoin="round"/></svg>