<svg width="37" height="32" fill="none" xmlns="http://www.w3.org/2000/svg"><path d="M37 2.042a1 1 0 00-.958-1.041L27.05.62a1 1 0 10-.084 1.998l7.993.338-.338 7.993a1 1 0 001.998.084L37 2.042zM.517 29.624a1 1 0 10.964 1.752l-.964-1.752zm10.58-4.447A1 1 0 009.9 23.576l1.197 1.601zM26.981 8.913a1 1 0 101.348 1.478l-1.348-1.478zm-25.5 22.463a79.778 79.778 0 009.615-6.199L9.9 23.576a77.778 77.778 0 01-9.382 6.048l.964 1.752zM28.33 10.391c2.496-2.278 5.255-4.813 8.347-7.655l-1.354-1.472c-3.093 2.842-5.848 5.375-8.34 7.65l1.347 1.477z" fill="#FFCB03"/></svg>