<svg width="77" height="22" fill="none" xmlns="http://www.w3.org/2000/svg"><path d="M74.945 21.998A1 1 0 0076 21.055l.492-8.987a1 1 0 00-1.997-.11l-.438 7.989-7.988-.438a1 1 0 00-.11 1.997l8.987.492zM1.22 4.053a1 1 0 00.56 1.92l-.56-1.92zm10.097-.318a1 1 0 00-.352-1.968l.352 1.968zM30.924.481a1 1 0 10-.106 1.997l.105-1.997zm19.048 5.56a1 1 0 00.636-1.896l-.636 1.896zm18.38 7.444a1 1 0 10-1.22 1.585l1.22-1.585zM1.78 5.973a91.903 91.903 0 019.537-2.238l-.352-1.968A93.901 93.901 0 001.22 4.053l.56 1.92zm29.038-3.495c6.671.354 13.128 1.54 19.154 3.563l.636-1.896C44.398 2.06 37.762.843 30.924.481l-.106 1.997zM67.133 15.07a52.563 52.563 0 017.122 6.597l1.49-1.334a54.557 54.557 0 00-7.393-6.848l-1.22 1.585z" fill="#FFCB03"/></svg>