<svg width="293" height="94" fill="none" xmlns="http://www.w3.org/2000/svg"><path d="M221.461 47.93h68.341V25.296h-68.341V47.93z" fill="#fff"/><path d="M146.45 70.455h68.341V2.661H146.45v67.794zm-71.512 0h68.231V2.661H74.938v67.794z" fill="#E62329"/><path d="M15.672 81.061h-2.515l-1.312 5.358-1.64-5.358H8.346l-1.64 5.358-1.421-5.358H2.66l2.843 10.17h2.078l1.64-5.03 1.64 5.03h1.968l2.843-10.17zm2.625 10.169h2.515V81.062h-2.515v10.17z" fill="#646368"/><path fill-rule="evenodd" clip-rule="evenodd" d="M32.512 91.231l-2.187-4.155c1.563-1.013 1.862-2.236 1.421-3.936-1.002-2.885-5.212-1.992-7.326-2.078v10.17h2.515v-3.718h.875l1.859 3.717h2.843zm-2.953-6.888l-.11.328-.655.656-.438.109h-1.421v-2.187h1.422l.437.11.328.328.328.328.11.328z" fill="#646368"/><path d="M42.243 83.248v-2.187H34.7v2.187h2.624v7.983h2.515v-7.983h2.405zm9.951 4.812c-.204-2.89-2.005-2.856-4.483-3.28l-.22-.22-.218-.437.11-.328.546-.547.656-.109.766.11.656.109.437.437 1.531-1.53-.547-.657-.874-.328-.985-.219h-1.858l-1.313.438-.546.437-.328.438-.438.546-.218.656v1.203l.109.656.219.438.437.328c1.465 1.74 3.122.33 4.046 1.64.288 2.056-2.798 1.18-3.718.656l-1.53 1.53c1.89 2.027 7.947 1.913 7.763-1.967zm10.606-.11h-2.515l-.109.548-.328.328-.328.218-.547.11-.656-.11-.547-.546-.109-.547v-.656l-.11-1.094.11-1.202v-.656l.11-.438.546-.547c.993-.348 1.744-.049 1.968.984H62.8l-.218-.765-.22-.765-.436-.438-.547-.437c-1.008-1.247-1.894-.78-3.28-.875-2.464.487-3.332 2.869-3.062 5.14-.908 6.183 7.264 6.808 7.763 1.749zm10.607 3.28V81.062h-2.515v3.937h-2.734v-3.937h-2.515v10.17h2.515v-3.937h2.734v3.937h2.515z" fill="#646368"/><path fill-rule="evenodd" clip-rule="evenodd" d="M85.435 91.23l-3.827-10.169h-1.86l-3.826 10.17h2.734l.546-1.531h3.062l.437 1.53h2.734zm-3.827-3.608h-1.75l.984-2.733.766 2.733z" fill="#646368"/><path d="M94.839 83.248v-2.187h-6.78v10.17h2.406v-3.937h3.827v-2.077h-3.827v-1.969h4.374zm10.169 0v-2.187h-7.545v2.187h2.515v7.983h2.515v-7.983h2.515zm9.95 4.812c-.124-2.79-2.232-2.943-4.483-3.28-.437-.381-.718-.627-.109-1.203l.328-.328.546-.11.875.11.547.11.547.437 1.531-1.531c-2.67-2.76-9.191-.926-6.561 3.936 2.148 1.817 3.705.427 4.155 1.64l.109.329-.109.437-.219.328-.437.11-.766.109-.546-.11-.656-.11-.547-.218-.437-.218-1.641 1.53c1.726 1.894 7.93 2.096 7.873-1.968zm11.81 3.17l-3.718-6.013 3.608-4.156h-3.062l-2.952 3.609v-3.61h-2.515v10.17h2.515v-3.17l.766-.984 2.405 4.155h2.953z" fill="#646368"/><path fill-rule="evenodd" clip-rule="evenodd" d="M137.593 91.23l-3.609-10.169h-2.077l-3.609 10.17h2.625l.546-1.531h3.062l.547 1.53h2.515zm-3.609-3.608h-1.859L133 84.89l.984 2.733z" fill="#646368"/><path d="M149.839 91.23V81.062h-2.514l-2.297 4.593-2.296-4.593h-2.515v10.17h2.624v-4.92l1.422 2.623h1.531l1.531-2.624v4.92h2.514zm13.122 0V81.062h-2.406l-2.405 4.593-2.187-4.593h-2.515v10.17h2.515v-4.92l1.421 2.623h1.64l1.422-2.624v4.92h2.515zm10.606 0v-2.186h-4.483v-1.75h3.718v-2.296h-3.718v-1.75h4.483v-2.187h-6.998v10.17h6.998z" fill="#646368"/><path fill-rule="evenodd" clip-rule="evenodd" d="M185.049 91.23l-2.297-4.155c1.59-1.004 1.992-2.181 1.422-3.936-.995-2.88-5.232-1.976-7.326-2.078v10.17h2.515v-3.718h.874l1.859 3.718h2.953zm-3.062-6.888c-.939 1.452-.68 1.008-2.624 1.093v-2.187c1.942.086 1.685-.359 2.624 1.094zm14.871-4.264h1.859V78h-1.859v2.078zm-3.39 0h1.968V78h-1.968v2.078zm6.561 6.123c.946-6.905-8.757-7.007-7.764 0-.982 6.91 8.706 6.79 7.764 0zm-2.515 0c-.415 1.74.592 2.4-1.421 2.952l-.329-.11-.218-.108-.547-.22-.109-.218-.11-.547-.109-.656v-2.296l.109-.656.11-.328.109-.328.547-.328.218-.11h.329c1.705-.049 1.206 1.921 1.421 2.953z" fill="#646368"/><path d="M210.198 88.06c-.27-2.825-2.128-2.924-4.483-3.28l-.437-.438-.11-.219.11-.328.328-.219.328-.328.546-.109.875.11.547.109.547.437 1.64-1.53-.766-.657-.765-.328-.984-.219h-1.859l-.765.22-.547.218-.656.437-.328.438-.328.546-.219.656v1.203l.109.656.219.438.328.328c1.997 1.85 3.095.273 4.155 1.64.305 2.03-2.825 1.214-3.718.656l-1.64 1.53c2.096 2.002 7.917 1.956 7.873-1.967zm10.169-4.812v-2.187h-7.545v2.187h2.406v7.983h2.515v-7.983h2.624zm9.841 7.982v-2.186h-4.373v-1.75h3.827v-2.296h-3.827v-1.75h4.373v-2.187h-6.888v10.17h6.888z" fill="#646368"/><path fill-rule="evenodd" clip-rule="evenodd" d="M241.69 91.231l-2.187-4.155c1.511-1.18 2.026-1.826 1.421-3.936-.98-2.83-5.276-2.04-7.326-2.078v10.17h2.515v-3.719h.875l1.749 3.718h2.953zm-3.062-6.889c-.385 1.615-1.053.904-2.515 1.094v-2.187c1.462.188 2.13-.521 2.515 1.093zm13.996 6.888l-2.187-4.154.656-.547.438-.438.328-.765.109-.547.109-.437-.109-.547-.109-.656c-1.495-3.114-4.427-1.68-7.326-2.078v10.17h2.515v-3.718h.765l1.968 3.718h2.843zm-3.061-6.888v.328l-.329.328-.328.328-.437.11h-1.421v-2.188h1.421l.437.11.657.656v.328z" fill="#646368"/><path d="M262.356 91.23v-2.186h-4.374v-1.75h3.827v-2.296h-3.827v-1.75h4.374v-2.187h-6.889v10.17h6.889zm3.39 0h2.515V81.062h-2.515v10.17zm13.558-3.28h-2.514c-.29 1.041-.881 1.415-1.969 1.094l-.546-.547-.11-.546-.109-.657v-2.296l.109-.656.11-.437.546-.547c1.42-.328 1.34-.173 1.969.984h2.514c-.457-4.634-8.656-4.873-7.654 1.859-1.1 6.61 7.521 6.448 7.654 1.75zm10.607 3.28V81.062h-2.624v3.937h-2.515v-3.937h-2.515v10.17h2.515v-3.937h2.515v3.937h2.624z" fill="#646368"/><path d="M130.595 59.083l-16.512-27.445 15.855-18.699h-13.886l-13.559 16.402V12.94H91.34v46.144h11.153V44.65l3.936-4.483 10.716 18.916h13.45z" fill="#fff"/><path d="M3.207 70.455h68.232V2.661H3.207v67.794z" fill="#E62329"/><path d="M66.846 12.94H54.927l-6.014 24.384L41.37 12.94h-8.092l-7.545 24.384-6.014-24.384H7.8l12.793 46.143h9.294l7.436-22.744 7.545 22.744h9.403L66.846 12.94z" fill="#fff"/><path d="M221.461 25.296h68.341V2.66h-68.341v22.635zm0 45.159h68.341V47.93h-68.341v22.525z" fill="#E62329"/><path d="M180.666 11.5c-32.804.887-32.778 47.906 0 48.887 32.843-1.16 32.82-47.846 0-48.887zm0 11.345h.045c3.715.143 6.552 1.844 8.429 4.282 1.877 2.438 2.819 5.584 2.825 8.748.006 3.164-.907 6.333-2.779 8.793-1.873 2.46-4.737 4.184-8.475 4.374h-.045c-3.754-.196-6.653-1.906-8.52-4.374s-2.752-5.67-2.734-8.839c.018-3.168.948-6.315 2.825-8.747 1.877-2.432 4.741-4.115 8.429-4.237z" fill="#fff"/></svg>