<svg width="411" height="485" fill="none" xmlns="http://www.w3.org/2000/svg"><g opacity=".9" clip-path="url(#clip0_479_18363)" fill="#F2F7FF"><path d="M207.527 0h3.955l197.364 6.006c1.458.06 2.839.61 3.909 1.56l167.153 149.803a.642.642 0 01-.644 1.055l-88.52-36.958c-1.441-.611-2.452-.199-3.035 1.238l-14.301 35.216c-.613 1.467-1.425 1.589-2.437.366-48.376-58.662-111.037-89.643-187.984-92.945-1.502-.061-1.931-.78-1.287-2.155l9.426-20.221c.797-1.682.338-2.874-1.379-3.577L203.756 4.585c-1.471-.58-1.532-1.284-.184-2.11L207.527 0z"/><path d="M428.665 517.917c174.373-157.324 18.072-432.63-206.009-371.736-1.656.428-2.453-.198-2.391-1.88.582-16.996-5.534-30.844-18.348-41.543-1.38-1.162-1.211-1.987.506-2.476 85.622-25.724 178.281-4.952 242.475 56.491 106.637 102.071 97.256 269.024-14.347 361.878-.675.55-1.257.855-1.748.917-1.533.214-1.579-.337-.138-1.651zM162.417 182.268c23.898 0 43.271-19.318 43.271-43.148 0-23.83-19.373-43.148-43.271-43.148s-43.272 19.318-43.272 43.148c0 23.83 19.374 43.148 43.272 43.148z"/><path d="M152.208 194.739c-82.22 58.28-110.363 164.111-65.344 254.809 28.817 58.081 77.652 94.917 146.506 110.507a.694.694 0 01.491.683.686.686 0 01-.537.647c-3.495.581-8.385.489-14.669-.275C106.039 547.446 13.105 465.826 2.207 351.1c-8.231-86.892 30.534-166.815 102.683-216.979 1.379-.978 2.084-.612 2.115 1.1.491 30.386 15.405 49.4 44.743 57.042 1.9.52 2.054 1.345.46 2.476zm70.678 72.955c18.565 0 33.614-15.007 33.614-33.519s-15.049-33.519-33.614-33.519c-18.565 0-33.615 15.007-33.615 33.519s15.05 33.519 33.615 33.519z"/><path d="M272.595 556.388c-53.005-18.524-81.791-53.343-86.359-104.454-3.908-44.157 15.037-82.491 50.399-108.077 1.564-1.162 2.376-.764 2.437 1.192.46 14.092 7.327 23.171 20.601 27.237 2.177.642 2.361 1.666.552 3.072-37.523 28.796-51.686 73.137-36.144 117.936 12.018 34.665 38.014 56.889 77.99 66.671.889.214.904.459.046.734-6.745 2.14-13.366 1.819-19.865-.963-1.441-.612-2.897-.627-4.369-.046-4.721 1.926-9.871 2.4-15.451 1.421-71.367-12.227-120.57-47.764-147.609-106.609-37.753-82.17-10.117-171.264 63.136-224.041 1.41-1.04 2.131-.673 2.162 1.1.429 23.569 11.894 38.212 34.396 43.928a1.154 1.154 0 01.809.895 1.145 1.145 0 01-.441 1.123c-49.893 36.27-73.989 91.386-64.608 152.555 9.013 59.059 56.652 116.284 120.249 128.023a1.515 1.515 0 001.333-.413c.276-.275.567-.55.874-.825a.28.28 0 00.065-.269.276.276 0 00-.203-.19z"/><path d="M267.858 366.14c12.165 0 22.026-9.833 22.026-21.964 0-12.13-9.861-21.963-22.026-21.963s-22.026 9.833-22.026 21.963c0 12.131 9.861 21.964 22.026 21.964z"/></g><defs><clipPath id="clip0_479_18363"><path fill="#fff" d="M0 0h584v564H0z"/></clipPath></defs></svg>