<svg width="19" height="18" fill="none" xmlns="http://www.w3.org/2000/svg"><path clip-rule="evenodd" d="M8.642 9.858a9.476 9.476 0 01-1.979-2.857.561.561 0 01.125-.62l.614-.613c.503-.504.503-1.215.064-1.655l-.88-.88a1.5 1.5 0 00-2.122 0l-.489.489c-.555.555-.787 1.357-.637 2.152.37 1.96 1.509 4.106 3.346 5.942 1.836 1.837 3.982 2.975 5.942 3.346.795.15 1.597-.082 2.152-.638l.489-.488a1.5 1.5 0 000-2.12l-.88-.88a1.124 1.124 0 00-1.59 0l-.678.678a.561.561 0 01-.62.124 9.495 9.495 0 01-2.857-1.98z" stroke="#AC7500" stroke-width="2" stroke-linecap="round" stroke-linejoin="round"/></svg>