<svg width="429" height="539" fill="none" xmlns="http://www.w3.org/2000/svg"><g opacity=".03" fill="#004497"><path d="M230.625 0h4.395l219.331 6.688c1.62.066 3.155.68 4.344 1.736l185.757 166.803a.716.716 0 01-.715 1.175l-98.373-41.152c-1.601-.681-2.725-.222-3.372 1.378l-15.893 39.212c-.682 1.634-1.584 1.77-2.709.408-53.759-65.318-123.395-99.816-208.906-103.492-1.669-.068-2.146-.868-1.431-2.4l10.476-22.516c.886-1.872.375-3.2-1.533-3.982L226.435 5.106c-1.636-.647-1.704-1.43-.205-2.349L230.625 0z"/><path d="M476.376 576.688C670.157 401.512 496.46 94.966 247.438 162.77c-1.84.477-2.726-.221-2.658-2.093.648-18.925-6.149-34.345-20.389-46.258-1.534-1.293-1.346-2.212.562-2.757 95.152-28.643 198.124-5.514 269.462 62.902 118.507 113.653 108.082 299.551-15.943 402.941-.75.613-1.397.953-1.942 1.021-1.704.239-1.755-.374-.154-1.838zM180.494 202.951c26.558 0 48.087-21.51 48.087-48.044 0-26.535-21.529-48.045-48.087-48.045-26.558 0-48.088 21.51-48.088 48.045 0 26.534 21.53 48.044 48.088 48.044z"/><path d="M169.149 216.838C77.778 281.732 46.503 399.571 96.532 500.562c32.024 64.672 86.295 105.688 162.812 123.047a.76.76 0 01.546.76.765.765 0 01-.597.721c-3.884.646-9.318.544-16.301-.307-125.15-15.215-228.428-106.096-240.54-233.84-9.147-96.753 33.933-185.746 114.112-241.602 1.533-1.089 2.317-.681 2.351 1.226.545 33.833 17.119 55.005 49.723 63.514 2.112.579 2.282 1.498.511 2.757zm78.544 81.232c20.632 0 37.356-16.71 37.356-37.323 0-20.612-16.724-37.322-37.356-37.322-20.631 0-37.355 16.71-37.355 37.322 0 20.613 16.724 37.323 37.355 37.323z"/><path d="M302.935 619.525c-58.904-20.627-90.894-59.396-95.97-116.308-4.344-49.167 16.71-91.851 56.008-120.341 1.737-1.293 2.64-.851 2.708 1.328.511 15.691 8.143 25.8 22.894 30.328 2.419.714 2.623 1.855.613 3.42-41.699 32.064-57.439 81.436-40.166 131.319 13.355 38.599 42.245 63.344 86.67 74.236.988.239 1.005.511.051.817-7.495 2.383-14.854 2.026-22.077-1.072-1.601-.681-3.219-.698-4.854-.051-5.247 2.144-10.97 2.672-17.171 1.583-79.311-13.615-133.99-53.184-164.038-118.707-41.955-91.494-11.243-190.698 70.163-249.465 1.567-1.157 2.368-.748 2.402 1.226.477 26.243 13.219 42.547 38.225 48.912a1.28 1.28 0 01.831 1.692c-.086.22-.233.413-.423.555-55.446 40.386-82.223 101.756-71.798 169.866 10.016 65.762 62.958 129.481 133.632 142.551a1.681 1.681 0 001.482-.459c.307-.307.631-.613.971-.919a.31.31 0 00.077-.141.296.296 0 00-.005-.159.302.302 0 00-.225-.211z"/><path d="M297.671 407.689c13.519 0 24.478-10.949 24.478-24.456s-10.959-24.456-24.478-24.456c-13.519 0-24.478 10.949-24.478 24.456s10.959 24.456 24.478 24.456z"/></g></svg>