<svg width="24" height="24" fill="none" xmlns="http://www.w3.org/2000/svg"><path d="M10.5 21.004v-3.502a1.5 1.5 0 011.5-1.5v0a1.5 1.5 0 011.5 1.5v3.502" stroke="#80AC06" stroke-width="1.6" stroke-linecap="round" stroke-linejoin="round"/><path d="M6.998 21.004V11.5a2 2 0 01.923-1.686l3.002-1.918a2 2 0 012.155 0l3 1.918a2 2 0 01.924 1.686v9.504M12 2.996h4.002v2.501H12m0 2.084V2.996" stroke="#80AC06" stroke-width="1.6" stroke-linecap="round" stroke-linejoin="round"/><path d="M12 11.333a.167.167 0 10.002.334.167.167 0 00-.002-.334m5.002 3.123h2.001m-2.001 3.001h2.001M4.997 14.456h2.001m-2.001 3.001h2.001m-5.002 3.547h20.008m-19.007 0V12a1 1 0 011-1h3.001m14.006 10.004V12a1 1 0 00-1-1h-3.002" stroke="#80AC06" stroke-width="1.6" stroke-linecap="round" stroke-linejoin="round"/></svg>