<svg width="40" height="40" fill="none" xmlns="http://www.w3.org/2000/svg"><rect width="40" height="40" rx="20" fill="#13ADE9"/><path d="M14.28 13.263c1.293-.932 3.12-1.012 4.495-.215a7.1 7.1 0 014.575.741 7.082 7.082 0 013.322 3.917 7.123 7.123 0 01.277 3.517 4.23 4.23 0 01.468 2.911 4.206 4.206 0 01-1.81 2.679c-1.284.863-3.047.911-4.384.137a7.11 7.11 0 01-4.406-.653 7.084 7.084 0 01-3.425-3.821 7.145 7.145 0 01-.344-3.7 4.227 4.227 0 01-.455-2.963 4.207 4.207 0 011.688-2.55z" fill="#fff" stroke="#fff" stroke-width="1.6" stroke-linecap="round" stroke-linejoin="round"/><path d="M17.566 22.03c.252.733 1.244 1.283 2.434 1.283 1.667 0 2.5-.737 2.5-1.646v.02a1.5 1.5 0 00-1.253-1.479L20 20l-1.247-.207a1.5 1.5 0 01-1.253-1.48v0c0-.91.833-1.646 2.5-1.646 1.19 0 2.183.549 2.434 1.282" stroke="#13ADE9" stroke-width="1.6" stroke-linecap="round" stroke-linejoin="round"/></svg>