<svg width="40" height="40" fill="none" xmlns="http://www.w3.org/2000/svg"><rect width="40" height="40" rx="20" fill="#0076FF"/><path d="M18.725 14.507c.643-.008 1.477-.01 1.784 0 1.139.037 1.135.768 1.12 1.301-.017.664-.342 3.15.068 4.08.115.26.44.248.652.058 1.009-.91 1.713-2.857 2.241-4.138.298-.723.25-.758.936-.76l2.725-.004c.656-.001.63-.027.84.275.49.702-1.542 3.622-2.198 4.43-1.211 1.49-.505 2.067-.31 2.272.904.948 1.777 1.933 2.32 2.84.431.722.253 1.393-.296 1.419l-2.921.136c-.97.045-2.477-1.913-2.718-2.34-.194-.351-1.132-.792-1.22.107l-.124 1.255c-.09.897-.677.876-1.141.898-3.212.156-4.307-1.22-5.924-3.252l-.002-.004c-1.187-1.89-2.318-3.79-3.256-6.066-.201-.487-.334-.881-.408-1.26-.054-.282.072-.568.35-.635.702-.168 1.94-.058 2.83-.08.305-.007.51.189.67.58.617 1.501 1.289 2.976 2.171 4.284a.776.776 0 00.098.12c.21.206.405.328.565.251.36-.173.363-.836.376-1.235.017-.494.015-1.184.019-1.767.003-.552.027-1.023-.461-1.39-.307-.232-.62-.59-.387-.895.245-.32.754-.48 1.601-.48z" fill="#fff"/></svg>