<svg width="40" height="40" fill="none" xmlns="http://www.w3.org/2000/svg"><rect width="40" height="40" rx="20" fill="#25D366"/><path d="M13.122 24.072c-1.66-2.795-1.456-6.245.455-8.843 2.293-3.117 6.571-4.123 10.025-2.377a7.981 7.981 0 012.829 2.388c2.714 3.721 1.814 8.833-1.984 11.417-2.483 1.689-5.758 1.773-8.375.311a.052.052 0 00-.038-.005l-3.941 1.034c-.017.004-.023-.002-.018-.017l1.055-3.849a.074.074 0 00-.008-.059zm4.996-4.584c-.068-.119-.03-.257.069-.35.214-.2.387-.43.52-.69a.332.332 0 00.015-.297c-.2-.494-.403-.988-.608-1.481-.19-.455-.428-.415-.879-.397-.358.014-.586.303-.782.568-.765 1.035-.36 2.275.293 3.23.726 1.062 1.46 1.921 2.514 2.623.525.35 1.062.571 1.655.765.651.213 1.363.417 2.025.153.34-.135.843-.449.993-.81.072-.172.289-.93.062-1.053-.43-.232-.992-.504-1.686-.817-.168-.075-.3-.051-.394.072-.224.29-.397.507-.52.652-.179.21-.243.345-.52.232-1.209-.492-2.128-1.292-2.757-2.4z" fill="#fff"/></svg>