<svg width="60" height="60" fill="none" xmlns="http://www.w3.org/2000/svg"><rect width="60" height="60" rx="30" fill="red"/><path d="M41.979 22.966c-.286-1.255-1.134-2.245-2.212-2.585-1.948-.608-9.767-.608-9.767-.608s-7.815 0-9.767.608c-1.074.335-1.922 1.325-2.212 2.585C17.5 25.244 17.5 30 17.5 30s0 4.756.521 7.034c.287 1.255 1.134 2.245 2.212 2.585 1.952.608 9.767.608 9.767.608s7.819 0 9.767-.608c1.074-.335 1.922-1.325 2.212-2.585C42.5 34.756 42.5 30 42.5 30s0-4.756-.521-7.034z" fill="#fff" stroke="#fff" stroke-width="2.4" stroke-linecap="round" stroke-linejoin="round"/><path d="M27.502 33.75L33.997 30l-6.495-3.75v7.5z" fill="red"/></svg>