<svg width="24" height="24" fill="none" xmlns="http://www.w3.org/2000/svg"><path d="M4.497 16.442c-1.812-3.049-1.588-6.813.497-9.647 2.5-3.4 7.168-4.498 10.936-2.593a8.707 8.707 0 013.086 2.605c2.961 4.06 1.98 9.637-2.164 12.454-2.71 1.843-6.282 1.935-9.137.34a.057.057 0 00-.042-.005l-4.299 1.128c-.018.004-.024-.002-.02-.02l1.151-4.197a.08.08 0 00-.008-.065zm5.45-5.001c-.074-.13-.033-.28.075-.382a2.72 2.72 0 00.568-.753.362.362 0 00.016-.323c-.219-.54-.44-1.078-.663-1.616-.206-.497-.467-.453-.959-.433-.39.016-.64.33-.853.62-.835 1.129-.392 2.482.319 3.523.793 1.16 1.594 2.096 2.743 2.862.572.381 1.159.623 1.805.834.71.233 1.488.455 2.21.167.37-.147.92-.49 1.083-.883.078-.188.315-1.016.068-1.15a29.79 29.79 0 00-1.84-.89c-.183-.083-.326-.056-.43.078-.243.315-.433.553-.567.711-.195.23-.265.377-.566.254-1.32-.537-2.322-1.41-3.009-2.62z" fill="#AC7500"/></svg>