<svg width="40" height="40" fill="none" xmlns="http://www.w3.org/2000/svg"><rect width="40" height="40" rx="16" fill="#FFCB03"/><path clip-rule="evenodd" d="M17.703 12.095l-6.174 3.43c-1.298.721-1.298 2.587 0 3.308l6.174 3.43a4.733 4.733 0 004.594 0l6.174-3.43c1.298-.721 1.298-2.587 0-3.308l-6.174-3.43a4.733 4.733 0 00-4.594 0z" stroke="#fff" stroke-width="2" stroke-linecap="round" stroke-linejoin="round"/><path d="M13.991 20.2v3.924c0 .949.475 1.834 1.264 2.359l1.607 1.069a5.666 5.666 0 006.275 0l1.607-1.069a2.832 2.832 0 001.264-2.359V20.2" stroke="#fff" stroke-width="2" stroke-linecap="round" stroke-linejoin="round"/></svg>