<svg width="40" height="40" fill="none" xmlns="http://www.w3.org/2000/svg"><rect width="40" height="40" rx="16" fill="#01BAF5"/><path clip-rule="evenodd" d="M25.002 29.004H14.998a4.002 4.002 0 01-4.002-4.002V17a2 2 0 012.001-2.001h14.006a2 2 0 012 2v8.004a4.002 4.002 0 01-4 4.002z" stroke="#fff" stroke-width="2" stroke-linecap="round" stroke-linejoin="round"/><path d="M15.998 14.998v-2A2 2 0 0118 10.995h4.002a2 2 0 012 2.001v2" stroke="#fff" stroke-width="2" stroke-linecap="round" stroke-linejoin="round"/><rect x="17.999" y="19" width="4.002" height="3.001" rx=".5" stroke="#fff" stroke-width="2" stroke-linecap="round" stroke-linejoin="round"/><path d="M22.001 20.5h3.501a3.501 3.501 0 003.502-3.5v0M18 20.5h-3.502a3.501 3.501 0 01-3.502-3.5v0" stroke="#fff" stroke-width="2" stroke-linecap="round" stroke-linejoin="round"/></svg>